<!-- Created with Inkscape (http://www.inkscape.org/) -->
<svg xmlns:rdf="http://www.w3.org/1999/02/22-rdf-syntax-ns#" xmlns="http://www.w3.org/2000/svg" height="1052.4" width="744.09" version="1.1" xmlns:cc="http://creativecommons.org/ns#" xmlns:dc="http://purl.org/dc/elements/1.1/">
 <defs>
  <filter id="filter3849">
   <feGaussianBlur stdDeviation="0.62068359"/>
  </filter>
 </defs>
 <metadata>
  <rdf:RDF>
   <cc:Work rdf:about="">
    <dc:format>image/svg+xml</dc:format>
    <dc:type rdf:resource="http://purl.org/dc/dcmitype/StillImage"/>
    <dc:title/>
   </cc:Work>
  </rdf:RDF>
 </metadata>
 <rect opacity="0" rx="0" ry="0.71429" height="157.14" width="254.26" y="213.79" x="175.71"/>
 <path opacity="0" d="m160.56,501.78h393.16v-398.84h-393.16v398.84z"/>
 <rect opacity="0.6" stroke-linejoin="miter" ry="0" height="272.86" width="199" stroke="#333" stroke-linecap="butt" stroke-dasharray="none" x="166.21" y="179" stroke-miterlimit="4" stroke-width="25" fill="none"/>
 <rect opacity="0.6" stroke-linejoin="miter" fill-rule="evenodd" height="23.907" width="155.29" stroke="#000" stroke-linecap="butt" y="212.93" x="185.81" stroke-width="1.093px" fill="#333"/>
 <rect opacity="0.6" stroke-linejoin="miter" fill-rule="evenodd" height="23.929" width="148.93" stroke="#000" stroke-linecap="butt" y="273.94" x="185.8" stroke-width="1.0709px" fill="#333"/>
 <rect opacity="0.6" stroke-linejoin="miter" fill-rule="evenodd" height="23.895" width="158.89" stroke="#000" stroke-linecap="butt" y="395.99" x="185.81" stroke-width="1.1053px" fill="#333"/>
 <rect opacity="0.6" stroke-linejoin="miter" fill-rule="evenodd" height="24.04" width="119.04" stroke="#000" stroke-linecap="butt" y="334.9" x="185.74" stroke-width="0.95963px" fill="#333"/>
 <path fill="none" stroke-miterlimit="4" stroke-opacity="0" d="m261.32,164.21s90.051-201.29,143.02-26.486c52.971,174.81,54.737,174.81,54.737,174.81"/>
 <path opacity="0.6" style="baseline-shift:baseline;block-progression:tb;color:#000000;direction:ltr;text-indent:0;text-align:start;enable-background:accumulate;text-transform:none;" fill="#333" d="m339.34,101.84c-12.518-0.25421-25.408,2.4163-38.025,8.8914l9.3538,14.17c19.904-10.215,37.468-8.5172,55.716,0.0512,18.248,8.5685,36.125,24.746,51.359,42.663,30.357,35.704,50.168,77.436,50.313,77.742,0.00054,0.00082,0.0581,0.10249,0.0581,0.10249l3.2244,7.149,17.255-6.0984-3.2825-7.2259-0.029-0.0513v-0.0512s-20.354-43.404-52.666-81.406c-16.156-19.001-35.296-36.868-57.517-47.301-11.11-5.2169-23.242-8.381-35.759-8.6352z"/>
 <path stroke-linejoin="round" opacity="0.6" d="m501.67,237.25,1.9648,69.82-46.729-51.914c17.104,4.4381,35.161-2.8493,44.764-17.906z" fill-rule="evenodd" stroke="#333" stroke-width="3.75000000000000000" fill="#333"/>
 <path opacity="0.6" stroke-linejoin="miter" d="m306.71,166.56c-0.97293-22.857-0.97293-23.771-0.97293-23.771l-199.45,0.91427v273.37l48.646-0.91427" stroke="#333" stroke-linecap="butt" stroke-miterlimit="4" stroke-dasharray="none" stroke-width="23.57849884" fill="none"/>
</svg>
