<?xml version="1.0" encoding="UTF-8" standalone="no"?>
<!-- Created with Inkscape (http://www.inkscape.org/) -->

<svg
   xmlns:dc="http://purl.org/dc/elements/1.1/"
   xmlns:cc="http://creativecommons.org/ns#"
   xmlns:rdf="http://www.w3.org/1999/02/22-rdf-syntax-ns#"
   xmlns:svg="http://www.w3.org/2000/svg"
   xmlns="http://www.w3.org/2000/svg"
   xmlns:sodipodi="http://sodipodi.sourceforge.net/DTD/sodipodi-0.dtd"
   xmlns:inkscape="http://www.inkscape.org/namespaces/inkscape"
   height="362.55151"
   width="411"
   version="1.1"
   id="svg2"
   inkscape:version="0.48.3.1 r9886"
   sodipodi:docname="ic_menu_template_holo_light.svg">
  <sodipodi:namedview
     pagecolor="#ffffff"
     bordercolor="#666666"
     borderopacity="1"
     objecttolerance="10"
     gridtolerance="10"
     guidetolerance="10"
     inkscape:pageopacity="0"
     inkscape:pageshadow="2"
     inkscape:window-width="1440"
     inkscape:window-height="812"
     id="namedview33"
     showgrid="false"
     fit-margin-top="0"
     fit-margin-left="0"
     fit-margin-right="0"
     fit-margin-bottom="0"
     inkscape:zoom="0.5"
     inkscape:cx="277.54501"
     inkscape:cy="-61.825012"
     inkscape:window-x="0"
     inkscape:window-y="33"
     inkscape:window-maximized="1"
     inkscape:current-layer="svg2" />
  <defs
     id="defs4">
    <filter
       id="filter3849"
       color-interpolation-filters="sRGB">
      <feGaussianBlur
         stdDeviation="0.62068359"
         id="feGaussianBlur7" />
    </filter>
  </defs>
  <metadata
     id="metadata9">
    <rdf:RDF>
      <cc:Work
         rdf:about="">
        <dc:format>image/svg+xml</dc:format>
        <dc:type
           rdf:resource="http://purl.org/dc/dcmitype/StillImage" />
        <dc:title />
      </cc:Work>
    </rdf:RDF>
  </metadata>
  <rect
     rx="0"
     ry="0.71429002"
     height="157.14"
     width="254.25999"
     y="111.96649"
     x="81.210007"
     id="rect11"
     style="opacity:0" />
  <path
     d="M 66.06,399.9565 H 459.22 V 1.1165 H 66.06 v 398.84 z"
     id="path13"
     inkscape:connector-curvature="0"
     style="opacity:0" />
  <rect
     ry="0"
     height="272.85999"
     width="199"
     x="71.710007"
     y="77.176498"
     stroke-miterlimit="4"
     id="rect15"
     style="opacity:0.6;fill:none;stroke:#333333;stroke-width:25;stroke-linecap:butt;stroke-linejoin:miter;stroke-miterlimit:4;stroke-dasharray:none" />
  <rect
     height="23.907"
     width="155.28999"
     y="111.10649"
     x="91.309998"
     id="rect17"
     style="opacity:0.6;fill:#333333;fill-rule:evenodd;stroke:#000000;stroke-width:1.09300005px;stroke-linecap:butt;stroke-linejoin:miter" />
  <rect
     height="23.929001"
     width="148.92999"
     y="172.1165"
     x="91.300003"
     id="rect19"
     style="opacity:0.6;fill:#333333;fill-rule:evenodd;stroke:#000000;stroke-width:1.07089996px;stroke-linecap:butt;stroke-linejoin:miter" />
  <rect
     height="23.895"
     width="158.89"
     y="294.1665"
     x="91.309998"
     id="rect21"
     style="opacity:0.6;fill:#333333;fill-rule:evenodd;stroke:#000000;stroke-width:1.10529995px;stroke-linecap:butt;stroke-linejoin:miter" />
  <rect
     height="24.040001"
     width="119.04"
     y="233.07649"
     x="91.240005"
     id="rect23"
     style="opacity:0.6;fill:#333333;fill-rule:evenodd;stroke:#000000;stroke-width:0.95963001px;stroke-linecap:butt;stroke-linejoin:miter" />
  <path
     stroke-miterlimit="4"
     d="m 166.82,62.3865 c 0,0 90.051,-201.29 143.02,-26.486 52.971,174.81 54.737,174.81 54.737,174.81"
     id="path25"
     inkscape:connector-curvature="0"
     style="fill:none;stroke-miterlimit:4;stroke-opacity:0" />
  <path
     style="text-indent:0;text-align:start;text-transform:none;direction:ltr;block-progression:tb;baseline-shift:baseline;opacity:0.6;color:#000000;fill:#333333;enable-background:accumulate"
     d="m 244.84,0.0165 c -12.518,-0.25421 -25.408,2.4163 -38.025,8.8914 l 9.3538,14.17 c 19.904,-10.215 37.468,-8.5172 55.716,0.0512 18.248,8.5685 36.125,24.746 51.359,42.663 30.357,35.704 50.168,77.436 50.313,77.742 5.4e-4,8.2e-4 0.0581,0.10249 0.0581,0.10249 l 3.2244,7.149 17.255,-6.0984 -3.2825,-7.2259 -0.029,-0.0513 v -0.0512 c 0,0 -20.354,-43.404 -52.666,-81.406 -16.156,-19.001 -35.296,-36.868 -57.517,-47.301 -11.11,-5.2169 -23.242,-8.381 -35.759,-8.6352 z"
     id="path27"
     inkscape:connector-curvature="0" />
  <path
     d="m 407.17,135.4265 1.9648,69.82 -46.729,-51.914 c 17.104,4.4381 35.161,-2.8493 44.764,-17.906 z"
     id="path29"
     inkscape:connector-curvature="0"
     style="opacity:0.6;fill:#333333;fill-rule:evenodd;stroke:#333333;stroke-width:3.75;stroke-linejoin:round" />
  <path
     d="m 212.21,64.7365 c -0.97293,-22.857 -0.97293,-23.771 -0.97293,-23.771 l -199.45,0.91427 v 273.37 l 48.646,-0.91427"
     stroke-miterlimit="4"
     id="path31"
     inkscape:connector-curvature="0"
     style="opacity:0.6;fill:none;stroke:#333333;stroke-width:23.57849884;stroke-linecap:butt;stroke-linejoin:miter;stroke-miterlimit:4;stroke-dasharray:none" />
</svg>
