<!-- Created with Inkscape (http://www.inkscape.org/) -->
<svg xmlns:rdf="http://www.w3.org/1999/02/22-rdf-syntax-ns#" xmlns="http://www.w3.org/2000/svg" height="1052.4" width="744.09" version="1.1" xmlns:cc="http://creativecommons.org/ns#" xmlns:dc="http://purl.org/dc/elements/1.1/">
 <defs>
  <filter id="filter3849">
   <feGaussianBlur stdDeviation="0.62068359"/>
  </filter>
 </defs>
 <metadata>
  <rdf:RDF>
   <cc:Work rdf:about="">
    <dc:format>image/svg+xml</dc:format>
    <dc:type rdf:resource="http://purl.org/dc/dcmitype/StillImage"/>
    <dc:title/>
   </cc:Work>
  </rdf:RDF>
 </metadata>
 <rect opacity="0" rx="0" ry="0.71429" height="157.14" width="254.26" y="213.79" x="175.71"/>
 <path opacity="0" d="m160.56,501.78h393.16v-398.84h-393.16v398.84z"/>
 <rect opacity="0.6" stroke-linejoin="miter" stroke-dasharray="none" ry="0" height="272.86" width="199" stroke="#333" stroke-linecap="butt" stroke-miterlimit="4" y="179" x="166.21" stroke-width="25" fill="none"/>
 <rect opacity="0.6" stroke-linejoin="miter" fill-rule="evenodd" height="23.907" width="155.29" stroke="#000" stroke-linecap="butt" y="212.93" x="185.81" stroke-width="1.093px" fill="#333"/>
 <rect opacity="0.6" stroke-linejoin="miter" fill-rule="evenodd" height="23.929" width="148.93" stroke="#000" stroke-linecap="butt" y="273.94" x="185.8" stroke-width="1.0709px" fill="#333"/>
 <rect opacity="0.6" stroke-linejoin="miter" fill-rule="evenodd" height="23.895" width="158.89" stroke="#000" stroke-linecap="butt" y="395.99" x="185.81" stroke-width="1.1053px" fill="#333"/>
 <rect opacity="0.6" stroke-linejoin="miter" fill-rule="evenodd" height="24.04" width="119.04" stroke="#000" stroke-linecap="butt" y="334.9" x="185.74" stroke-width="0.95963px" fill="#333"/>
 <path d="m261.32,164.21s90.051-201.29,143.02-26.486c52.971,174.81,54.737,174.81,54.737,174.81" stroke-opacity="0" stroke-miterlimit="4" fill="none"/>
 <path opacity="0.6" style="baseline-shift:baseline;block-progression:tb;color:#000000;direction:ltr;text-indent:0;text-align:start;enable-background:accumulate;text-transform:none;" fill="#333" d="m392,311.38,0,20,58,0,0-20-58,0z"/>
 <path stroke-linejoin="round" opacity="0.6" d="m445.49,297.16,65.555,24.106-65.555,24.106c10.473-14.232,10.413-33.705,0-48.213z" fill-rule="evenodd" stroke="#333" stroke-width="3.75000000000000000" fill="#333"/>
</svg>
